<svg xmlns="http://www.w3.org/2000/svg" xmlns:xlink="http://www.w3.org/1999/xlink" viewBox="0 0 82.35 36.54"><defs><style>.cls-1{isolation:isolate;}.cls-2{fill:#d0d2d3;mix-blend-mode:multiply;}.cls-3{fill:#fbb040;}.cls-4{fill:#f79520;}.cls-5{fill:url(#linear-gradient);}.cls-6{fill:#2e3192;}.cls-7{fill:#7a582e;}.cls-8{fill:#e6e7e8;}.cls-9{fill:#df834e;}.cls-10{fill:#3f2b19;}.cls-11{fill:#be1e2d;}</style><linearGradient id="linear-gradient" x1="70.74" y1="20.63" x2="70.74" y2="27.84" gradientUnits="userSpaceOnUse"><stop offset="0" stop-color="#f7941d"/><stop offset="0.18" stop-color="#f4941e"/><stop offset="0.33" stop-color="#ea9320"/><stop offset="0.46" stop-color="#d99323"/><stop offset="0.59" stop-color="#c19229"/><stop offset="0.71" stop-color="#a3912f"/><stop offset="0.83" stop-color="#7d8f37"/><stop offset="0.94" stop-color="#518d41"/><stop offset="1" stop-color="#358c47"/></linearGradient></defs><g class="cls-1"><g id="Layer_1" data-name="Layer 1"><polygon points="16.43 27.88 17.58 31.85 16.35 36.52 18.38 36.01 19.99 34.51 20.85 36.55 22.16 32.99 25.04 32.61 26.26 28.05 19.54 25.95 18.87 26.33 17.11 27.13 16.43 27.88"/><polygon class="cls-2" points="19.99 34.51 17.11 27.13 16.43 27.88 17.79 31.81 18.38 36.01 19.99 34.51"/><polygon class="cls-3" points="19.33 26.07 25.76 28.26 24.68 32.25 21.96 32.64 20.82 35.48 17.35 27.02 17.49 26.95 20.73 34.63 21.7 32.22 24.35 31.91 25.45 28.42 19.17 26.16 19.33 26.07"/><polygon class="cls-3" points="18.32 35.54 16.94 35.91 17.79 31.81 16.43 27.88 17.96 32 17.26 35.53 18.27 35.2 19.73 33.84 19.85 34.15 18.32 35.54"/><polygon class="cls-3" points="23.87 27.75 23.88 28 24.5 28.23 24.47 28.39 24.9 28.65 24.79 29.08 24.99 29.18 24.9 29.64 25.12 29.93 25.59 28.33 23.87 27.75"/><polygon class="cls-3" points="17.43 34.21 17.6 34.22 17.54 34.73 17.66 34.72 17.64 35.06 17.96 34.95 17.96 35.14 18.29 35.04 18.34 35.38 17.13 35.68 17.43 34.21"/><polygon class="cls-3" points="20.36 26.71 23.86 28.26 23.54 28.29 23.38 28.24 23.28 28.28 23.09 28.22 23.1 28.11 22.87 28.04 22.68 27.98 22.51 28.01 22.36 27.87 22.16 27.75 22.01 27.76 21.94 27.8 21.73 27.73 21.79 27.6 21.55 27.5 21.37 27.53 21.15 27.38 21.16 27.26 20.9 27.17 20.72 27.1 20.76 26.98 20.36 26.71"/><polygon class="cls-3" points="24.37 29.02 24.15 29.33 23.98 29.26 24.12 28.92 24.37 29.02"/><rect class="cls-3" x="23.75" y="28.91" width="0.23" height="0.16" transform="translate(-11.85 40.58) rotate(-68.52)"/><rect class="cls-3" x="23.52" y="28.76" width="0.14" height="0.16" transform="translate(-11.89 40.21) rotate(-68.5)"/><polygon class="cls-3" points="22.82 30.36 22.98 29.87 23.32 30.14 23.15 30.68 22.48 30.86 22.21 30.56 22.82 30.36"/><polygon class="cls-3" points="19.92 32.71 19.98 32.61 20.3 33.32 20.36 33.23 20.68 34.01 20.89 33.63 20.95 33.83 21.16 33.35 21.28 33.67 20.8 34.93 19.92 32.71"/><polygon class="cls-3" points="19.05 26.23 18.95 26.29 20.68 27.89 20.56 28.06 19.51 28.42 19.11 28.79 17.96 26.74 17.68 26.87 19.46 30.69 20.27 29.74 21.8 29.31 22.2 28.32 19.05 26.23"/><polygon class="cls-2" points="25.04 32.61 18.87 26.33 18.42 26.54 22.16 32.99 25.04 32.61"/><polygon points="9.09 11.2 5.7 9.29 2.49 8.97 2.69 4.71 4.91 4.09 4.96 2.67 4.58 2.03 7.48 2.99 8.97 0.26 13.88 0.9 12.99 6.08 12.98 9.14 11.36 10.08 10.41 10.56 9.47 11 9.09 11.2"/><polygon class="cls-2" points="9.05 11.13 5.63 8.5 4.72 6.92 2.69 4.71 2.49 8.97 5.7 9.29 9.05 11.13"/><polygon class="cls-3" points="5.38 3.35 5.24 4.56 2.94 5.19 3.18 8.4 5.78 9.02 9.08 11.18 5.83 8.87 3.38 8.17 3.08 5.45 5.38 4.77 5.55 3.64 5.38 3.35"/><polygon class="cls-3" points="5.36 2.63 7.7 3.44 9.12 0.78 13.29 1.37 12.59 5.86 12.68 9.26 12.49 9.38 12.35 5.88 12.92 1.63 9.22 1.15 7.91 3.86 6.03 3.15 10.16 10.68 10.06 10.73 5.36 2.63"/><polygon class="cls-3" points="10.89 1.31 10.91 1.49 11.6 1.66 11.66 1.92 12.39 2.02 12.31 2.93 12.53 3.03 12.49 3.81 12.72 3.94 13.15 1.5 10.89 1.31"/><polygon class="cls-3" points="9.82 3.27 9.28 4.29 9.54 5.02 10.05 4.11 10.88 4.15 10.71 3.32 9.82 3.27"/><polygon class="cls-3" points="12.3 4.52 12.12 5.82 12.37 8.54 12.19 8.25 12.18 8.07 12.09 8 12.07 7.79 12.17 7.75 12.14 7.5 12.12 7.29 12.01 7.14 12.07 6.93 12.1 6.69 12.02 6.56 11.95 6.5 11.93 6.28 12.01 6.27 12.01 6.05 11.89 5.84 11.87 5.62 12.04 5.55 12.01 5.26 12.08 5.03 12.14 5.03 12.3 4.52"/><polygon class="cls-3" points="11.64 3.09 12.04 3.15 12.06 3.34 11.67 3.38 11.64 3.09"/><rect class="cls-3" x="11.74" y="3.5" width="0.24" height="0.17" transform="translate(-0.28 1.1) rotate(-5.24)"/><rect class="cls-3" x="11.77" y="3.83" width="0.15" height="0.17" transform="translate(-0.31 1.1) rotate(-5.24)"/><polygon class="cls-3" points="3.3 7.05 3.45 7.1 3.49 7.58 3.63 7.61 3.66 7.94 4 8.05 4 8.21 4.52 8.36 4.54 8.6 3.31 8.26 3.3 7.05"/><polygon class="cls-3" points="6.83 3.41 6.89 3.52 6.58 3.44 6.61 3.49 6.37 3.43 6.48 3.65 6.42 3.65 6.6 4.03 6.42 4 5.83 3.03 6.83 3.41"/><polygon class="cls-3" points="6.13 5.33 6.05 5.75 5.54 5.88 5.9 6.31 6.35 6.18 6.49 5.85 6.13 5.33"/><polygon class="cls-3" points="10.33 10.61 8.62 7.38 9.68 7.42 10.77 6.58 11.51 6.68 12.07 9.67 11.51 9.99 10.88 8.04 10.2 8.4 9.78 8.48 10.78 10.38 10.33 10.61"/><polygon class="cls-2" points="8.97 0.26 11.7 9.88 11.39 10.06 11.11 10.21 7.48 2.99 8.97 0.26"/><path d="M35.5,13.05H34.13V11.5h4.49v1.55H37.26v5.36H35.5Z"/><path d="M42.53,11.37A3.59,3.59,0,1,1,38.89,15a3.82,3.82,0,0,1,.27-1.48A3.58,3.58,0,0,1,42.53,11.37Zm0,5.62a1.94,1.94,0,0,0,1.86-2,2,2,0,0,0-1.88-2,1.92,1.92,0,0,0-1.89,2A1.94,1.94,0,0,0,42.56,17Z"/><path d="M47.14,11.5h2.13c1.16,0,1.71.11,2.21.67a1.59,1.59,0,0,1,.41,1.14,1.56,1.56,0,0,1-.8,1.39,1.6,1.6,0,0,1,1.14,1.61,2,2,0,0,1-.64,1.5,2.88,2.88,0,0,1-2.26.6H47.14Zm1.69,2.62h.62c.25,0,.75,0,.75-.55s-.48-.52-.75-.52h-.62Zm0,2.74h.83c.22,0,.88,0,.88-.67s-.6-.59-.88-.59h-.83Z"/><path d="M54.81,17.41l-.37,1H52.55l2.77-6.91h1.39l2.75,6.91H57.54l-.33-1Zm.48-1.4h1.45L56,13.64h0Z"/><path d="M66.65,15.82a3.55,3.55,0,0,1-3.49,2.72,3.59,3.59,0,1,1,0-7.17,3.53,3.53,0,0,1,3.51,2.75H64.8a1.79,1.79,0,0,0-1.67-1.2,1.91,1.91,0,0,0-1.85,2A1.94,1.94,0,0,0,63.14,17a1.84,1.84,0,0,0,1.66-1.17Z"/><path d="M74.42,15.82a3.55,3.55,0,0,1-3.49,2.72,3.6,3.6,0,0,1-3.64-3.6,3.56,3.56,0,0,1,3.62-3.57,3.52,3.52,0,0,1,3.51,2.75H72.58a1.8,1.8,0,0,0-1.68-1.2,1.91,1.91,0,0,0-1.85,2A1.94,1.94,0,0,0,70.91,17a1.88,1.88,0,0,0,1.67-1.17Z"/><path d="M78.69,11.37A3.59,3.59,0,1,1,75,15a3.83,3.83,0,0,1,.28-1.48A3.57,3.57,0,0,1,78.69,11.37Zm0,5.62a1.93,1.93,0,0,0,1.86-2,1.94,1.94,0,0,0-1.87-2,1.92,1.92,0,0,0-1.89,2A1.94,1.94,0,0,0,78.71,17Z"/><path class="cls-4" d="M34.66,20.81h3.78v1.55H36.36v1.17h2v1.55h-2v2.64h-1.7Z"/><path class="cls-4" d="M39.39,20.81h2.19a3.06,3.06,0,0,1,2.13.49,2.4,2.4,0,0,1,.85,1.89,2.09,2.09,0,0,1-1.72,2.17l1.87,2.36h-2l-1.6-2.24h0v2.24H39.39Zm1.69,3.47h.63c1,0,1.16-.65,1.16-1,0-.63-.46-.93-1.14-.93h-.65Z"/><path class="cls-4" d="M45.49,20.81h3.84v1.55H47.18v1.07h2.09V25H47.18v1.19h2.15v1.55H45.49Z"/><path class="cls-4" d="M50.43,20.81h3.83v1.55H52.12v1.07H54.2V25H52.12v1.19h2.14v1.55H50.43Z"/><path class="cls-5" d="M75.29,20.72H64.77v2.63H63.59V22.9a2.74,2.74,0,0,0-.46-1.65,1.78,1.78,0,0,0-1.51-.62,2,2,0,0,0-1.46.51,1.82,1.82,0,0,0-.5,1.32,1.71,1.71,0,0,0,0,.36h1.49a1.69,1.69,0,0,1,0-.3.66.66,0,0,1,.14-.44.44.44,0,0,1,.37-.17.45.45,0,0,1,.4.19,1,1,0,0,1,.13.52v.73h-.6a2.38,2.38,0,0,0-1.55.49,1.7,1.7,0,0,0-.6,1.41,2,2,0,0,0,.26,1,1.72,1.72,0,0,0,.74.67,2.37,2.37,0,0,0,1.09.24,2,2,0,0,0,1.52-.57,2.29,2.29,0,0,0,.53-1.6v-.45h1.18v3.2h1.49V22h1.55v5.79H69.3V22H73v.5a1.27,1.27,0,0,1-.3.92,1.45,1.45,0,0,1-1.05.32h-1v2.07a2.3,2.3,0,0,0,.24,1.06,1.78,1.78,0,0,0,.71.73,2.24,2.24,0,0,0,1.14.27,1.92,1.92,0,0,0,1.45-.54,2,2,0,0,0,.53-1.45v-.22H73.3v.26a.77.77,0,0,1-.15.49.5.5,0,0,1-.42.19.51.51,0,0,1-.44-.19.91.91,0,0,1-.14-.52v-.95h0A2.12,2.12,0,0,0,74,24.25a2.76,2.76,0,0,0,.53-1.78V22H79.6v1.11H78.33a3.07,3.07,0,0,0-1.94.59,2.08,2.08,0,0,0-.76,1.76,2.15,2.15,0,0,0,.69,1.74,2.65,2.65,0,0,0,1.78.58h.41V26.57h-.18a1.25,1.25,0,0,1-.89-.29,1.1,1.1,0,0,1-.3-.82,1,1,0,0,1,.34-.81,1.42,1.42,0,0,1,.93-.29H79.6v3.4h1.49V22H82V20.72ZM62.2,25.09a.93.93,0,0,1-.18.6.61.61,0,0,1-.51.22.66.66,0,0,1-.48-.17.63.63,0,0,1-.19-.49.61.61,0,0,1,.22-.51.89.89,0,0,1,.59-.18h.55Z"/><path class="cls-6" d="M36.1,30.47H34.45v-.29H36.1Zm-.65,1.77h-.34V30.18h.34Z"/><path class="cls-6" d="M36.81,32.27a.79.79,0,0,1-.38-.09.63.63,0,0,1-.25-.26.87.87,0,0,1-.1-.42,1,1,0,0,1,.1-.44.75.75,0,0,1,.26-.27.83.83,0,0,1,.39-.09.79.79,0,0,1,.38.09.72.72,0,0,1,.26.26,1,1,0,0,1,.09.44.82.82,0,0,1-.1.42.62.62,0,0,1-.26.27A.8.8,0,0,1,36.81,32.27Zm0-.27a.33.33,0,0,0,.35-.23.74.74,0,0,0,.05-.28.6.6,0,0,0-.05-.29A.35.35,0,0,0,37,31a.34.34,0,0,0-.2-.06.37.37,0,0,0-.21.06.44.44,0,0,0-.14.18.76.76,0,0,0,0,.29.74.74,0,0,0,0,.28.42.42,0,0,0,.13.18A.35.35,0,0,0,36.81,32Z"/><path class="cls-6" d="M38.23,32.19l-.34.05V30h.34Zm.27.07-.21,0a.83.83,0,0,1-.22-.08l.14-.23.14.05h.13a.39.39,0,0,0,.31-.13.54.54,0,0,0,.13-.4.56.56,0,0,0-.09-.35.28.28,0,0,0-.25-.11.36.36,0,0,0-.2.06.57.57,0,0,0-.15.21l-.11-.09a.92.92,0,0,1,.22-.35.52.52,0,0,1,.36-.13.51.51,0,0,1,.41.18.88.88,0,0,1,.15.55,1.08,1.08,0,0,1-.09.46.66.66,0,0,1-.27.28A.82.82,0,0,1,38.5,32.26Z"/><path class="cls-6" d="M39.91,32.27a.43.43,0,0,1-.31-.11.36.36,0,0,1-.12-.29.45.45,0,0,1,.1-.28.74.74,0,0,1,.33-.19,2.76,2.76,0,0,1,.62-.1v.21a2.9,2.9,0,0,0-.45.06.49.49,0,0,0-.22.11.2.2,0,0,0-.06.15.18.18,0,0,0,.06.15A.25.25,0,0,0,40,32,.37.37,0,0,0,40.2,32a.46.46,0,0,0,.15-.16.67.67,0,0,0,0-.26h.1a.94.94,0,0,1-.07.39.58.58,0,0,1-.21.25A.68.68,0,0,1,39.91,32.27Zm.81,0h-.28l0-.35v-.56a.29.29,0,0,0-.12-.27.64.64,0,0,0-.34-.07h-.16l-.18,0,0-.28.19,0H40a1.1,1.1,0,0,1,.39.06.42.42,0,0,1,.24.19.8.8,0,0,1,.08.36Z"/><path class="cls-6" d="M41.82,32.26a.88.88,0,0,1-.41-.09.55.55,0,0,1-.26-.26.77.77,0,0,1-.1-.42.94.94,0,0,1,.1-.43.75.75,0,0,1,.27-.26.87.87,0,0,1,.4-.09h.28l0,.29L42,31h-.14a.47.47,0,0,0-.34.11.61.61,0,0,0,0,.74.47.47,0,0,0,.34.12H42l.12,0v.28l-.15,0Z"/><path class="cls-6" d="M43.11,32.26a.88.88,0,0,1-.41-.09.55.55,0,0,1-.26-.26.87.87,0,0,1-.1-.42.94.94,0,0,1,.1-.43.75.75,0,0,1,.27-.26.87.87,0,0,1,.4-.09h.29V31l-.12,0h-.14a.48.48,0,0,0-.34.11.61.61,0,0,0,0,.74.47.47,0,0,0,.34.12h.15l.12,0v.28l-.14,0Z"/><path class="cls-6" d="M44.37,32.27a.76.76,0,0,1-.38-.09.59.59,0,0,1-.26-.26.87.87,0,0,1-.09-.42,1,1,0,0,1,.09-.44.78.78,0,0,1,.27-.27.79.79,0,0,1,.38-.09.76.76,0,0,1,.38.09.65.65,0,0,1,.26.26,1,1,0,0,1,.09.44.93.93,0,0,1-.09.42.7.7,0,0,1-.27.27A.79.79,0,0,1,44.37,32.27Zm0-.27a.33.33,0,0,0,.2-.05.37.37,0,0,0,.14-.18.59.59,0,0,0,0-.28.78.78,0,0,0,0-.29.37.37,0,0,0-.14-.18.32.32,0,0,0-.2-.06.34.34,0,0,0-.2.06.37.37,0,0,0-.14.18.6.6,0,0,0-.06.29.74.74,0,0,0,.05.28.44.44,0,0,0,.14.18A.31.31,0,0,0,44.37,32Z"/><path class="cls-6" d="M45.84,31v-.22l.4,0h.54V31Zm.58,1.25h-.34V30.79a1.63,1.63,0,0,1,0-.36.55.55,0,0,1,.13-.24A.58.58,0,0,1,46.5,30a1.2,1.2,0,0,1,.35,0l0,.28-.22,0a.25.25,0,0,0-.14.08.36.36,0,0,0-.08.15,1.65,1.65,0,0,0,0,.27v1.44Z"/><path class="cls-6" d="M47.39,32.24h-.33V30.73h.28l0,.39Zm0-.87h-.07v-.26h0a.62.62,0,0,1,.21-.29.52.52,0,0,1,.32-.11l0,.32a.53.53,0,0,0-.31.08A.51.51,0,0,0,47.39,31.37Z"/><path class="cls-6" d="M48.83,32.26a.85.85,0,0,1-.6-.2.78.78,0,0,1-.2-.58.94.94,0,0,1,.1-.43.65.65,0,0,1,.26-.26.7.7,0,0,1,.35-.09.54.54,0,0,1,.44.18.79.79,0,0,1,.14.49v.1a.38.38,0,0,0,0,.1H48.2v-.18l.79,0a.53.53,0,0,0-.07-.31.23.23,0,0,0-.2-.1.33.33,0,0,0-.26.13.59.59,0,0,0-.1.39.67.67,0,0,0,.05.3.37.37,0,0,0,.18.17.84.84,0,0,0,.29,0h.18l.17,0,0,.27-.18,0Z"/><path class="cls-6" d="M50.38,32.26a.82.82,0,0,1-.6-.2.78.78,0,0,1-.2-.58.83.83,0,0,1,.1-.43.65.65,0,0,1,.26-.26.68.68,0,0,1,.35-.09.51.51,0,0,1,.43.18.74.74,0,0,1,.15.49,28570763914638.75,28570763914638.75,0,0,0,0,.2h-1.1v-.18l.8,0a.62.62,0,0,0-.07-.31.23.23,0,0,0-.2-.1.32.32,0,0,0-.26.13.59.59,0,0,0-.11.39.67.67,0,0,0,.06.3.37.37,0,0,0,.18.17.84.84,0,0,0,.29,0h.18l.17,0,0,.27-.18,0Z"/><path class="cls-6" d="M52.19,32.24h-.34V30.18h.34Zm.31,0h-.43V32h.42a.57.57,0,0,0,.35-.08.32.32,0,0,0,.11-.26.28.28,0,0,0-.11-.24.57.57,0,0,0-.33-.08h-.42v-.24h.37a.54.54,0,0,0,.32-.08.33.33,0,0,0,.1-.24.29.29,0,0,0-.1-.23.56.56,0,0,0-.32-.08h-.39v-.26h.4a1,1,0,0,1,.57.13.44.44,0,0,1,.18.38.45.45,0,0,1-.13.35.67.67,0,0,1-.41.16v0a.79.79,0,0,1,.47.14.44.44,0,0,1,.15.35.59.59,0,0,1-.09.34.49.49,0,0,1-.27.19A1.42,1.42,0,0,1,52.5,32.24Z"/><path class="cls-6" d="M54,32.24h-.33V30H54Zm1,0h-.33v-.79a1.09,1.09,0,0,0,0-.22.23.23,0,0,0-.06-.12.27.27,0,0,0-.24-.1.71.71,0,0,0-.2,0,.61.61,0,0,0-.16.12l0-.2a.72.72,0,0,1,.56-.27.6.6,0,0,1,.24.05.28.28,0,0,1,.15.11A.75.75,0,0,1,55,31s0,.1,0,.16a1.7,1.7,0,0,1,0,.24Z"/><path class="cls-6" d="M55.76,32.27a.46.46,0,0,1-.32-.11.38.38,0,0,1-.11-.29.45.45,0,0,1,.09-.28.74.74,0,0,1,.33-.19,2.86,2.86,0,0,1,.62-.1v.21a2.9,2.9,0,0,0-.45.06.49.49,0,0,0-.22.11.2.2,0,0,0-.06.15.18.18,0,0,0,.06.15.29.29,0,0,0,.16,0,.41.41,0,0,0,.19-.05.44.44,0,0,0,.14-.16.53.53,0,0,0,.05-.26h.11a.93.93,0,0,1-.08.39.58.58,0,0,1-.21.25A.61.61,0,0,1,55.76,32.27Zm.8,0h-.27l0-.35v-.56a.29.29,0,0,0-.12-.27.62.62,0,0,0-.34-.07h-.16l-.18,0,0-.28.2,0h.19a1.16,1.16,0,0,1,.4.06.43.43,0,0,1,.23.19.68.68,0,0,1,.08.36Z"/><path class="cls-6" d="M57.35,32.24H57V30.73h.27l.06.39Zm0-.87h-.08v-.26h0a.61.61,0,0,1,.2-.29.57.57,0,0,1,.33-.11V31a.5.5,0,0,0-.3.08A.51.51,0,0,0,57.35,31.37Z"/><path class="cls-6" d="M58.43,32.27a.46.46,0,0,1-.32-.11.38.38,0,0,1-.11-.29.4.4,0,0,1,.1-.28.65.65,0,0,1,.32-.19,2.86,2.86,0,0,1,.62-.1v.21a3.3,3.3,0,0,0-.45.06.56.56,0,0,0-.22.11.25.25,0,0,0,0,.15.18.18,0,0,0,.06.15.24.24,0,0,0,.15,0,.41.41,0,0,0,.19-.05.36.36,0,0,0,.14-.16.53.53,0,0,0,0-.26H59a.93.93,0,0,1-.08.39.58.58,0,0,1-.21.25A.61.61,0,0,1,58.43,32.27Zm.8,0H59l-.05-.35v-.56a.31.31,0,0,0-.11-.27.68.68,0,0,0-.35-.07H58.3l-.18,0,0-.28.19,0h.19a1.16,1.16,0,0,1,.4.06.46.46,0,0,1,.24.19.8.8,0,0,1,.07.36Z"/><path class="cls-6" d="M59.87,30.73h.65V31h-1v-.22Zm.4,1.53a.78.78,0,0,1-.22,0,.42.42,0,0,1-.16-.09.4.4,0,0,1-.11-.19.9.9,0,0,1,0-.31v-.8l0-.42h.29v1.23a.45.45,0,0,0,.06.27.26.26,0,0,0,.2.07h.1l.09,0v.27l-.12,0Z"/><path class="cls-6" d="M61,32.7h-.23c0-.14,0-.28,0-.43v-.43l.35,0c0,.16,0,.3-.06.44S61.05,32.57,61,32.7Z"/><path class="cls-6" d="M62.35,32.27h-.19l-.19,0L62,32l.2,0h.19a.82.82,0,0,0,.4-.07.23.23,0,0,0,.13-.21.28.28,0,0,0,0-.13.51.51,0,0,0-.13-.12l-.26-.13a2,2,0,0,1-.3-.17A.44.44,0,0,1,62,31a.5.5,0,0,1-.06-.26.47.47,0,0,1,.2-.4,1,1,0,0,1,.58-.14h.21l.18,0,0,.29-.21,0h-.2a.62.62,0,0,0-.33.07.2.2,0,0,0-.11.17.29.29,0,0,0,0,.14.38.38,0,0,0,.13.12l.27.13a2.07,2.07,0,0,1,.32.19.53.53,0,0,1,.15.19.59.59,0,0,1,0,.23.49.49,0,0,1-.23.43A1.06,1.06,0,0,1,62.35,32.27Z"/><path class="cls-6" d="M64.14,32.25h-.3l-.51-1.52h.35c.06.21.13.42.19.63s.13.43.19.65H64c.07-.22.13-.44.2-.65s.13-.42.19-.63h.31c.06.21.13.42.2.63s.13.43.2.65H65c.07-.22.14-.44.2-.65s.13-.42.19-.63h.3l-.51,1.52h-.32c-.06-.2-.13-.41-.19-.63L64.43,31h.13l-.21.64Q64.25,32,64.14,32.25Z"/><path class="cls-6" d="M66.22,32.27a.45.45,0,0,1-.31-.11.36.36,0,0,1-.12-.29.45.45,0,0,1,.1-.28.74.74,0,0,1,.33-.19,2.76,2.76,0,0,1,.62-.1v.21a2.9,2.9,0,0,0-.45.06.49.49,0,0,0-.22.11.2.2,0,0,0-.06.15.18.18,0,0,0,.06.15.27.27,0,0,0,.16,0,.41.41,0,0,0,.19-.05.44.44,0,0,0,.14-.16.53.53,0,0,0,0-.26h.11a.93.93,0,0,1-.08.39.58.58,0,0,1-.21.25A.62.62,0,0,1,66.22,32.27Zm.81,0h-.28l0-.35v-.56a.29.29,0,0,0-.12-.27.62.62,0,0,0-.34-.07h-.16l-.18,0,0-.28.2,0h.19a1.16,1.16,0,0,1,.4.06A.43.43,0,0,1,67,31a.8.8,0,0,1,.08.36Z"/><path class="cls-6" d="M67.76,32.26h-.35l0-.26.19,0h.15A.65.65,0,0,0,68,32a.15.15,0,0,0,.09-.14.11.11,0,0,0,0-.08s0-.05-.08-.08l-.2-.08a1.23,1.23,0,0,1-.23-.11.62.62,0,0,1-.14-.14.44.44,0,0,1,0-.21.36.36,0,0,1,.15-.3.76.76,0,0,1,.46-.12h.16l.17,0,0,.26-.16,0H68a.47.47,0,0,0-.23,0,.16.16,0,0,0-.07.13.2.2,0,0,0,0,.09.29.29,0,0,0,.1.08l.18.08a.7.7,0,0,1,.26.12.31.31,0,0,1,.12.14.47.47,0,0,1,0,.17.38.38,0,0,1-.18.34A1,1,0,0,1,67.76,32.26Z"/><path class="cls-6" d="M69,30.73h.64V31h-1v-.22Zm.39,1.53a.66.66,0,0,1-.21,0,.46.46,0,0,1-.17-.09.5.5,0,0,1-.11-.19,1.23,1.23,0,0,1,0-.31v-.8l.06-.42h.28v1.23a.38.38,0,0,0,.07.27.24.24,0,0,0,.19.07h.11l.09,0,0,.27-.12,0Z"/><path class="cls-6" d="M70.26,32.24h-.33V30h.33Zm1,0h-.33v-.79a1.28,1.28,0,0,0,0-.22.23.23,0,0,0-.06-.12.3.3,0,0,0-.25-.1.58.58,0,0,0-.19,0,.52.52,0,0,0-.17.12l0-.2a.69.69,0,0,1,.55-.27.54.54,0,0,1,.24.05.31.31,0,0,1,.16.11.34.34,0,0,1,.06.12.38.38,0,0,1,0,.16,1.7,1.7,0,0,1,0,.24Z"/><path class="cls-6" d="M72.7,32.24h-.34V30.18h.34Zm.31,0h-.43V32H73a.55.55,0,0,0,.35-.08.32.32,0,0,0,.11-.26.28.28,0,0,0-.11-.24.57.57,0,0,0-.33-.08H72.6v-.24H73a.54.54,0,0,0,.32-.08.33.33,0,0,0,.1-.24.29.29,0,0,0-.1-.23.54.54,0,0,0-.32-.08h-.39v-.26H73a1,1,0,0,1,.57.13.44.44,0,0,1,.18.38.45.45,0,0,1-.13.35.67.67,0,0,1-.41.16v0a.77.77,0,0,1,.47.14.44.44,0,0,1,.15.35.59.59,0,0,1-.09.34.49.49,0,0,1-.27.19A1.42,1.42,0,0,1,73,32.24Z"/><path class="cls-6" d="M74.49,32.24h-.33V30h.33Zm1,0h-.33v-.79a1.09,1.09,0,0,0,0-.22.33.33,0,0,0-.05-.12.3.3,0,0,0-.25-.1.71.71,0,0,0-.2,0,.61.61,0,0,0-.16.12l0-.2A.69.69,0,0,1,75,30.7a.57.57,0,0,1,.24.05.36.36,0,0,1,.16.11l.06.12s0,.1,0,.16a1.7,1.7,0,0,1,0,.24Z"/><path class="cls-6" d="M76.27,32.27a.46.46,0,0,1-.32-.11.38.38,0,0,1-.11-.29.4.4,0,0,1,.1-.28.65.65,0,0,1,.32-.19,2.86,2.86,0,0,1,.62-.1v.21a3.3,3.3,0,0,0-.45.06.56.56,0,0,0-.22.11.2.2,0,0,0,0,.15c0,.07,0,.12.06.15a.24.24,0,0,0,.15,0,.41.41,0,0,0,.19-.05.44.44,0,0,0,.14-.16.53.53,0,0,0,0-.26h.11a.93.93,0,0,1-.08.39.58.58,0,0,1-.21.25A.61.61,0,0,1,76.27,32.27Zm.8,0H76.8l0-.35v-.56a.31.31,0,0,0-.11-.27.68.68,0,0,0-.35-.07h-.16L76,31l0-.28.19,0h.19a1.16,1.16,0,0,1,.4.06A.5.5,0,0,1,77,31a.8.8,0,0,1,.07.36Z"/><path class="cls-6" d="M77.86,32.24h-.33V30.73h.27l.06.39Zm0-.87h-.08v-.26h0a.61.61,0,0,1,.2-.29.57.57,0,0,1,.33-.11V31a.5.5,0,0,0-.3.08A.51.51,0,0,0,77.86,31.37Z"/><path class="cls-6" d="M78.94,32.27a.46.46,0,0,1-.32-.11.38.38,0,0,1-.11-.29.4.4,0,0,1,.1-.28.65.65,0,0,1,.32-.19,2.86,2.86,0,0,1,.62-.1v.21a3.3,3.3,0,0,0-.45.06.56.56,0,0,0-.22.11.25.25,0,0,0,0,.15.18.18,0,0,0,.06.15A.24.24,0,0,0,79,32a.41.41,0,0,0,.19-.05.36.36,0,0,0,.14-.16.53.53,0,0,0,0-.26h.11a.93.93,0,0,1-.08.39.58.58,0,0,1-.21.25A.61.61,0,0,1,78.94,32.27Zm.8,0h-.27l0-.35v-.56a.31.31,0,0,0-.11-.27A.68.68,0,0,0,79,31h-.15l-.18,0,0-.28.19,0H79a1.16,1.16,0,0,1,.4.06.46.46,0,0,1,.24.19.8.8,0,0,1,.07.36Z"/><path class="cls-6" d="M80.38,30.73H81V31H80v-.22Zm.4,1.53a.78.78,0,0,1-.22,0,.42.42,0,0,1-.16-.09.4.4,0,0,1-.11-.19.9.9,0,0,1,0-.31v-.8l.06-.42h.28v1.23a.45.45,0,0,0,.06.27.26.26,0,0,0,.2.07H81L81,32v.27l-.12,0Z"/><path class="cls-6" d="M81.58,32.27a.23.23,0,0,1-.16-.06.25.25,0,0,1,0-.3.24.24,0,0,1,.32,0,.25.25,0,0,1,0,.3A.23.23,0,0,1,81.58,32.27Zm.14-.63h-.28l0-1.46h.36Z"/><path class="cls-7" d="M10.68,4.51l.37.45.28.47A5.64,5.64,0,0,1,8.45,6.7l-.12-.08.23-.73L9.87,4.12Z"/><path class="cls-7" d="M13.75,13.35l.5.71.41.72a6.27,6.27,0,0,1-3.21.4L11.3,15l0-.35,1.37-2.08Z"/><polygon class="cls-8" points="4.9 1.96 8.33 6.62 8.65 6.16 8.91 6.04 9.35 5.52 9.78 4.85 10.31 4.5 10.68 4.51 7.53 0.09 4.9 1.96"/><polygon class="cls-8" points="8.45 6.7 11.31 15.02 12.31 14.7 12.83 14.33 13.65 14.26 14.21 13.97 11.33 5.43 8.45 6.7"/><path class="cls-9" d="M18.53,20.06l3.79,9.24s-1.93,1.24-3,1.16l-3.81-9.23Z"/><polygon class="cls-8" points="15.53 21.23 18.14 19.37 14.43 14.28 11.81 16.14 15.53 21.23"/><ellipse class="cls-10" cx="9.89" cy="6.08" rx="1.6" ry="0.31" transform="translate(-1.65 4.79) rotate(-25.21)"/><ellipse class="cls-10" cx="13.12" cy="15.21" rx="1.62" ry="0.31" transform="translate(-6.51 10.94) rotate(-36.94)"/><path class="cls-7" d="M11.68,5.43h0c.07.08.46.56.46.72l0-.5s-.14-.43-.3-.35"/><path class="cls-7" d="M11.8,4.28l0,0c.1-.1.71-.72.93-.75l-.69.11s-.58.25-.45.46"/><path class="cls-7" d="M11.58,4.78h0a1.86,1.86,0,0,1,.57.05l-.27-.19s-.29-.1-.31,0"/><path class="cls-7" d="M12.17,4.58h0a.65.65,0,0,1,.19,0l-.09-.07s-.1,0-.11,0"/><path class="cls-7" d="M11.42,4.32h0a.4.4,0,0,1,0-.19l-.05.1s0,.1,0,.1"/><path class="cls-7" d="M11.16,3.77h0a1.75,1.75,0,0,1-.26-.51l0,.33s.07.29.18.25"/><path class="cls-7" d="M12.3,5.3h0a2.21,2.21,0,0,1,.68.24l-.27-.32s-.32-.21-.38-.08"/><path class="cls-7" d="M11.52,16.44v0a3.53,3.53,0,0,0,.56,1l-.58-.34s-.41-.43-.22-.57"/><path class="cls-7" d="M10.09,15.87h0a4.68,4.68,0,0,0-1.46.64l.56-.76s.65-.51.82-.23"/><path class="cls-7" d="M10.81,15.92h0a2.16,2.16,0,0,0-.3.69l-.05-.44s.06-.39.21-.34"/><path class="cls-7" d="M10.21,16.49h0s-.11.19-.1.24l0-.15s0-.14.07-.12"/><path class="cls-7" d="M10.37,15.44h0s-.17-.13-.22-.13h.15s.13,0,.11.09"/><path class="cls-7" d="M9.9,14.8v0c0-.08-.3-.56-.43-.61l.4.18s.3.25.19.36"/><path class="cls-7" d="M11,17.09h0a2.7,2.7,0,0,0-.15.95l-.2-.52s-.06-.5.14-.49"/><polygon class="cls-7" points="18.14 19.37 17.24 19.49 16.68 20.15 15.8 20.62 15.53 21.23 17.1 20.99 17.95 20.58 18.53 20.06 18.14 19.37"/><ellipse class="cls-10" cx="6.2" cy="0.98" rx="1.61" ry="0.43" transform="translate(0.5 3.62) rotate(-33.86)"/><path class="cls-11" d="M8.13,18.43c.46,1.38.9,2.65,1.28,3.94a.78.78,0,0,1-.24.66c-.72.57-1.48,1.09-2.32,1.7L4.08,20.82Z"/><path class="cls-11" d="M9.71,28.89l-2.48-3.6,7.85-5.65c.31,1.35.6,2.57.85,3.81a.73.73,0,0,1-.2.6C13.77,25.65,11.79,27.23,9.71,28.89Z"/><path class="cls-11" d="M16.32,24.2l1.85,2.23-5.72,6.26-2.32-3.22Z"/><path class="cls-11" d="M29,14a3.12,3.12,0,0,1-1.84.07L27,14l-7.77-3.46-4-3.5c-2.65,1.74-5.21,3.39-7.73,5.1a1.15,1.15,0,0,0-.42,1c1,3,2,6,3.09,9a3.62,3.62,0,0,0,2.35-2.8c.42-2.29,1-4.55,1.58-6.81A42.6,42.6,0,0,1,15.3,17.1C16,19.78,16,22.72,17.76,25h0s1.41,3.19,2.25,3.18v0l.07,0a.21.21,0,0,0,.1,0h0l1.36-.62,2.62-1.19A3.16,3.16,0,0,1,26,26.13c.79.17,1.57.36,2.35.56a15.89,15.89,0,0,0,4.77,1.13l.2,0V11.41C31.29,12.27,30.86,13.31,29,14Z"/><polygon class="cls-8" points="19.58 14.58 19.34 15.13 18.54 15.28 17.02 16.87 16.47 16.91 16.05 17.21 17.1 19.11 17.56 18.68 17.93 18.67 19.67 16.98 20.27 16.99 20.96 16.4 19.58 14.58"/><ellipse class="cls-10" cx="20.27" cy="15.49" rx="0.22" ry="1.14" transform="translate(-5.24 15.45) rotate(-37.29)"/><polygon class="cls-7" points="17.37 19.04 17.28 18.41 16.81 18.02 16.48 17.4 16.05 17.21 16.22 18.32 16.51 18.91 16.88 19.31 17.37 19.04"/><polygon class="cls-10" points="7.8 8.78 8.54 9.11 6.66 11.03 6.65 10.64 7.8 8.78"/><polyline class="cls-7" points="6.64 10.93 0.83 5.15 3.59 3.55 7.76 8.82"/><polygon class="cls-7" points="10.38 16.44 10.56 19.04 9.89 19.14 9.08 17.09 9 16.89 6.64 10.93 8.54 9.11 10.24 15.88 10.27 15.98 10.38 16.44"/><polygon class="cls-7" points="10.35 15.93 10.38 16.44 10.56 19.04 9.89 19.14 9.45 19.22 8.98 16.9 9 16.89 10.27 15.98 10.35 15.93"/><polygon class="cls-10" points="10.35 15.93 8.65 16.01 8.97 16.83 10.35 15.93"/><path class="cls-10" d="M1.24,6a.56.56,0,0,1,.1-.28,2.13,2.13,0,0,1-.7-.44.1.1,0,0,1,0-.08c0-.06.1-.06.15-.09S.8,4.91.8,4.84a.43.43,0,0,1,.45-.41.72.72,0,0,0,0-.61c0-.08,0-.18,0-.22s.13,0,.2,0,.18-.25.32-.24l.12.05a.24.24,0,0,0,.25-.13A1.64,1.64,0,0,1,2.33,3C2.41,3,2.55,3,2.6,3c0-.15.23-.2.37-.12a1.23,1.23,0,0,1,.29.35.4.4,0,0,0,.4.18.35.35,0,0,1-.08.48.32.32,0,0,1,.12.41.9.9,0,0,1-.33.34.48.48,0,0,1,0,.5A.5.5,0,0,1,3,5.44s-.07,0-.1,0,0,.06,0,.1A.63.63,0,0,1,2.53,6a.2.2,0,0,1-.17,0,.17.17,0,0,1,0-.23.8.8,0,0,1,.2-.21A12.83,12.83,0,0,0,1.24,6Z"/><polygon class="cls-7" points="4.94 12.48 5.57 11.4 5.79 11.69 5.91 12.32 4.94 12.48"/><polygon class="cls-7" points="5.02 11.09 5.63 10.6 5.09 10.33 4.53 10.49 5.02 11.09"/><polygon class="cls-7" points="3.01 11.69 4.53 11.12 5.2 11.2 4.51 11.55 3.01 11.69"/><polygon class="cls-7" points="4.63 12.4 4.5 11.75 4.82 12.05 4.63 12.4"/><polygon class="cls-7" points="5.76 11.18 5.85 10.95 5.67 11 5.76 11.18"/><path class="cls-11" d="M0,15l6.22-2.08,1.67,4.76L3.74,20.32Z"/><path class="cls-7" d="M3.06,20l0,0c-.15-.14-1-1-1.1-1.28l.18,1s.39.79.68.59"/><path class="cls-7" d="M3.13,22.26l0,0c-.18.24-1.2,1.61-1.63,1.73l1.34-.4s1.05-.66.73-1"/><path class="cls-7" d="M3.42,21.23h0a3.45,3.45,0,0,1-1.12.08l.59.29s.58.11.59-.12"/><path class="cls-7" d="M2.33,21.79h0a1,1,0,0,1-.39,0l.2.1s.2,0,.21,0"/><path class="cls-7" d="M3.88,22.08h0a1.51,1.51,0,0,1,.08.38L4,22.25s0-.2-.07-.19"/><path class="cls-7" d="M4.53,23.07l0,0c.09.1.63.71.64.92l-.05-.66s-.2-.55-.41-.44"/><path class="cls-7" d="M1.88,20.4h0a4.47,4.47,0,0,1-1.4-.28l.63.55s.67.33.76,0"/><path class="cls-7" d="M19.86,30.52l.45.26.38.31a5,5,0,0,1-2,2l-.12,0,0-.68.55-1.89Z"/><polygon class="cls-8" points="14.22 30.2 18.55 33.02 18.68 32.54 18.86 32.36 19.06 31.78 19.21 31.09 19.55 30.63 19.86 30.52 15.83 27.81 14.22 30.2"/><ellipse class="cls-10" cx="19.7" cy="32.08" rx="1.43" ry="0.28" transform="translate(-17.03 23.83) rotate(-45.79)"/><path class="cls-7" d="M21,31h0c.08.05.56.33.61.46L21.43,31s-.25-.32-.35-.2"/><path class="cls-7" d="M20.73,30v0a3.13,3.13,0,0,1,.54-.93l-.55.31s-.4.4-.22.53"/><path class="cls-7" d="M20.7,30.46h0a1.56,1.56,0,0,1,.49-.15l-.29-.07s-.27,0-.25.11"/><path class="cls-7" d="M21.13,30.11h0s.14-.06.17-.05l-.1,0s-.09,0-.08,0"/><path class="cls-7" d="M20.42,30.13h0a.36.36,0,0,1-.08-.15v.1s0,.09.05.08"/><path class="cls-7" d="M20,29.76h0c-.05,0-.35-.25-.37-.35l.09.29s.14.22.22.16"/><path class="cls-7" d="M21.47,30.68h0a2,2,0,0,1,.64,0l-.33-.18s-.33-.08-.34.05"/></g></g></svg>